# xmcd
#
# Track frame offsets:
#	150
#	54647
#	95508
#	143054
#	197261
#
# Disc length: 3040 seconds
#
# Revision: 0
# Processed by: cddbd v1.5.2PL0 Copyright (c) Steve Scherf et al.
# Submitted via: audiograbber 1.83.01
#
DISCID=3c0bde05
DTITLE=Rising - Lounge Music
DYEAR=1900
DGENRE=Chilled
TTITLE0=Rising
TTITLE1=Smooth Move
TTITLE2=Home To Stay
TTITLE3=Free To Love
TTITLE4=Do You Want To Know
EXTD=
EXTT0=
EXTT1=
EXTT2=
EXTT3=
EXTT4=
PLAYORDER=
